<?xml version="1.0"?>

<svg xmlns="http://www.w3.org/2000/svg" xmlns:xlink="http://www.w3.org/1999/xlink" version="1.1" width="356.666pt" height="181.196pt" viewBox="0 0 356.666 181.196">
<g enable-background="new">
<g>
<g id="Layer-1" data-name="Réteg 1">
<clipPath id="cp0">
<path transform="matrix(1,0,0,-1,0,181.196)" d="M 0 181.196 L 356.666 181.196 L 356.666 0 L 0 0 Z "></path>
</clipPath>
<g clip-path="url(#cp0)">
<g opacity="1">
<clipPath id="cp1">
<path transform="matrix(1,0,0,-1,0,181.196)" d="M 29.6938 41.1691 L 152.646 41.1691 L 152.646 166.575 L 29.6938 166.575 Z "></path>
</clipPath>
<g clip-path="url(#cp1)">
<path transform="matrix(1,0,0,-1,147.0459,104.3042)" d="M 0 0 L -34.692 -31.34 C -39.196 -35.409 -45.528 -36.766 -51.304 -34.899 L -95.791 -20.525 C -101.566 -18.66 -105.908 -13.854 -107.179 -7.919 L -116.975 37.795 C -118.246 43.729 -116.255 49.892 -111.751 53.96 L -77.06 85.3 C -72.556 89.369 -66.224 90.726 -60.448 88.86 L -15.961 74.486 C -10.186 72.62 -5.844 67.814 -4.573 61.88 L 5.223 16.166 C 6.494 10.231 4.503 4.069 0 0 " fill="#1F6BFF"></path>
</g>
</g>
<g opacity=".62">
<clipPath id="cp2">
<path transform="matrix(1,0,0,-1,0,181.196)" d="M 16.9461 15.4565 L 136.197 15.4565 L 136.197 142.462 L 16.9461 142.462 Z "></path>
</clipPath>
<g clip-path="url(#cp2)">
<path transform="matrix(1,0,0,-1,121.4688,145.0654)" d="M 0 0 L -42.637 -19.179 C -48.172 -21.669 -54.615 -21.017 -59.539 -17.468 L -97.467 9.867 C -102.391 13.416 -105.047 19.322 -104.436 25.36 L -99.727 71.875 C -99.116 77.913 -95.33 83.167 -89.794 85.657 L -47.158 104.835 C -41.623 107.326 -35.18 106.673 -30.256 103.125 L 7.672 75.79 C 12.596 72.241 15.253 66.335 14.642 60.296 L 9.933 13.783 C 9.321 7.744 5.535 2.49 0 0 " fill="#1F6BFF"></path>
</g>
</g>
<g opacity=".34">
<clipPath id="cp3">
<path transform="matrix(1,0,0,-1,0,181.196)" d="M 47.6494 14.6213 L 171.024 14.6213 L 171.024 139.722 L 47.6494 139.722 Z "></path>
</clipPath>
<g clip-path="url(#cp3)">
<path transform="matrix(1,0,0,-1,148.5322,152.126)" d="M 0 0 L -44.699 -13.702 C -50.501 -15.481 -56.813 -14.029 -61.254 -9.894 L -95.471 21.966 C -99.913 26.102 -101.811 32.293 -100.45 38.208 L -89.967 83.77 C -88.606 89.684 -84.193 94.424 -78.391 96.203 L -33.692 109.905 C -27.889 111.684 -21.578 110.232 -17.136 106.096 L 17.08 74.237 C 21.522 70.101 23.42 63.91 22.06 57.995 L 11.576 12.434 C 10.216 6.519 5.803 1.779 0 0 " fill="#1F6BFF"></path>
</g>
</g>
<path transform="matrix(1,0,0,-1,121.6069,93.7461)" d="M 0 0 C .038 -.013 .07 -.032 .095 -.057 L .076 -.057 C .926 -.615 1.351 -1.502 1.351 -2.72 C 1.312 -5.154 -.425 -6.372 -3.861 -6.372 L -9.415 -6.372 L -9.415 .818 L -4.051 .818 C -2.289 .818 -.938 .545 0 0 M -5.307 12.706 C -3.379 12.706 -1.94 12.49 -.989 12.06 C -.165 11.666 .248 10.867 .248 9.663 C .248 9.092 .114 8.572 -.152 8.103 L -.152 8.084 C -.507 7.45 -1.008 7.019 -1.655 6.791 C -2.39 6.55 -3.417 6.429 -4.736 6.429 L -9.415 6.429 L -9.415 12.706 L -5.307 12.706 M .324 17.347 C -.666 17.524 -1.819 17.613 -3.138 17.613 L -11.964 17.613 C -12.153 17.613 -12.336 17.607 -12.516 17.594 L -38.631 17.594 L -38.821 17.594 C -39.672 17.55 -40.363 17.227 -40.895 16.625 C -41.465 16.016 -41.75 15.096 -41.75 13.866 L -41.75 6.448 L -52.896 6.448 L -52.896 13.866 C -52.896 15.109 -53.182 16.028 -53.752 16.625 C -54.349 17.271 -55.116 17.594 -56.054 17.594 C -57.03 17.594 -57.792 17.271 -58.336 16.625 C -58.895 16.016 -59.173 15.096 -59.173 13.866 L -59.173 -7.589 C -59.173 -8.819 -58.895 -9.745 -58.336 -10.366 C -57.779 -11 -57.018 -11.317 -56.054 -11.317 C -55.128 -11.317 -54.368 -11 -53.771 -10.366 C -53.188 -9.77 -52.896 -8.845 -52.896 -7.589 L -52.896 1.198 L -41.75 1.198 L -41.75 -7.589 C -41.75 -8.819 -41.472 -9.745 -40.914 -10.366 C -40.355 -11 -39.595 -11.317 -38.631 -11.317 C -37.706 -11.317 -36.944 -11 -36.349 -10.366 C -35.765 -9.77 -35.474 -8.845 -35.474 -7.589 L -35.474 12.383 C -35.138 12.307 -34.757 12.269 -34.333 12.269 L -28.702 12.269 L -28.702 -7.589 C -28.702 -8.845 -28.404 -9.77 -27.808 -10.366 C -27.225 -11 -26.47 -11.317 -25.545 -11.317 C -24.632 -11.317 -23.884 -11.006 -23.3 -10.385 C -22.717 -9.789 -22.425 -8.857 -22.425 -7.589 L -22.425 12.269 L -16.795 12.269 C -16.389 12.269 -16.021 12.307 -15.692 12.383 L -15.692 -7.513 C -15.692 -8.819 -15.394 -9.77 -14.798 -10.366 C -14.671 -10.506 -14.525 -10.626 -14.36 -10.728 C -13.803 -11.095 -13.004 -11.279 -11.964 -11.279 L -3.633 -11.279 C -2.187 -11.279 -.913 -11.209 .19 -11.07 C .812 -10.994 1.395 -10.88 1.94 -10.728 C 2.042 -10.702 2.143 -10.677 2.245 -10.651 C 2.562 -10.55 2.86 -10.436 3.139 -10.309 C 4.546 -9.688 5.656 -8.743 6.467 -7.475 C 7.292 -6.182 7.704 -4.736 7.704 -3.138 C 7.729 -1.426 7.406 -.063 6.733 .951 C 6.138 1.852 5.624 2.511 5.193 2.929 C 4.749 3.36 4.014 3.893 2.986 4.527 C 3.749 4.933 4.293 5.339 4.622 5.745 C 5.826 6.957 6.421 8.504 6.41 10.386 C 6.41 11.235 6.277 12.028 6.011 12.763 C 5.732 13.524 5.333 14.215 4.812 14.836 C 4.28 15.458 3.671 15.971 2.986 16.377 L 3.005 16.377 C 2.207 16.859 1.312 17.182 .324 17.347 " fill="#ffffff"></path>
<path transform="matrix(1,0,0,-1,325.4893,87.1235)" d="M 0 0 C 0 -1.019 -.566 -1.528 -1.756 -1.528 C -2.944 -1.528 -3.539 -1.019 -3.539 0 L -3.539 15.09 C -3.539 16.505 -2.689 17.157 -1.048 17.157 C .594 17.157 1.415 16.505 2.01 15.458 L 8.776 3.681 L 8.776 15.628 C 8.776 16.647 9.371 17.157 10.56 17.157 C 11.748 17.157 12.343 16.647 12.343 15.628 L 12.343 .538 C 12.343 -.849 11.551 -1.528 9.994 -1.528 C 8.521 -1.528 7.785 -.962 7.105 .227 L 0 12.202 Z " fill="#0E1B3D"></path>
<path transform="matrix(1,0,0,-1,204.7393,71.4956)" d="M 0 0 L 0 -15.628 C 0 -16.646 -.623 -17.156 -1.897 -17.156 C -3.199 -17.156 -3.821 -16.646 -3.821 -15.628 L -3.821 -9.286 L -11.098 -9.286 L -11.098 -15.628 C -11.098 -16.646 -11.721 -17.156 -13.022 -17.156 C -14.325 -17.156 -14.948 -16.646 -14.948 -15.628 L -14.948 0 C -14.948 1.019 -14.325 1.529 -13.022 1.529 C -11.721 1.529 -11.098 1.019 -11.098 0 L -11.098 -5.861 L -3.821 -5.861 L -3.821 0 C -3.821 1.019 -3.199 1.529 -1.925 1.529 C -.623 1.529 0 1.019 0 0 " fill="#0E1B3D"></path>
<path transform="matrix(1,0,0,-1,218.7539,83.4712)" d="M 0 0 C .226 .566 .312 1.217 .312 1.981 L .312 11.976 C .312 12.995 .905 13.504 2.123 13.504 C 3.368 13.504 3.963 12.995 3.963 11.976 L 3.963 2.01 C 3.963 .595 3.765 -.623 3.313 -1.67 C 2.18 -4.36 -.284 -5.379 -3.341 -5.379 C -6.597 -5.379 -8.861 -4.247 -9.966 -1.67 C -10.391 -.68 -10.617 .538 -10.617 1.981 L -10.617 11.976 C -10.617 12.995 -9.994 13.504 -8.692 13.504 C -7.39 13.504 -6.767 12.995 -6.767 11.976 L -6.767 1.981 C -6.767 1.217 -6.682 .566 -6.455 0 C -5.918 -1.387 -4.813 -2.039 -3.228 -2.039 C -1.444 -2.039 -.51 -1.274 0 0 " fill="#0E1B3D"></path>
<path transform="matrix(1,0,0,-1,229.6533,87.1235)" d="M 0 0 C 0 -1.019 -.565 -1.528 -1.756 -1.528 C -2.944 -1.528 -3.539 -1.019 -3.539 0 L -3.539 15.09 C -3.539 16.505 -2.689 17.157 -1.048 17.157 C .595 17.157 1.416 16.505 2.011 15.458 L 8.776 3.681 L 8.776 15.628 C 8.776 16.647 9.371 17.157 10.56 17.157 C 11.749 17.157 12.344 16.647 12.344 15.628 L 12.344 .538 C 12.344 -.849 11.551 -1.528 9.994 -1.528 C 8.521 -1.528 7.786 -.962 7.105 .227 L 0 12.202 Z " fill="#0E1B3D"></path>
<path transform="matrix(1,0,0,-1,254.1719,81.6313)" d="M 0 0 C -1.02 0 -1.528 .539 -1.528 1.67 C -1.528 2.803 -1.02 3.341 0 3.341 L 4.134 3.341 C 5.465 3.341 6.059 2.747 6.059 1.416 L 6.059 -3.935 C 6.059 -5.067 5.69 -5.718 4.445 -6.256 C 3.341 -6.738 1.529 -7.077 -.198 -7.077 C -5.464 -7.077 -9.484 -3.822 -9.484 2.35 C -9.484 8.494 -5.549 11.834 -.34 11.834 C 1.416 11.834 3.058 11.466 4.36 10.702 C 5.294 10.164 5.832 9.569 5.832 8.918 C 5.832 8.097 4.982 7.078 4.134 7.078 C 3.681 7.078 3.313 7.361 2.718 7.701 C 1.841 8.182 .821 8.437 -.312 8.437 C -3.426 8.437 -5.521 6.427 -5.521 2.435 C -5.521 -1.642 -3.283 -3.736 -.057 -3.736 C .765 -3.736 1.643 -3.595 2.378 -3.369 L 2.378 0 Z " fill="#0E1B3D"></path>
<path transform="matrix(1,0,0,-1,272.7168,81.1494)" d="M 0 0 L -2.379 6.964 L -4.728 0 Z M 6.058 -6.427 C 6.058 -7.05 5.605 -7.502 4.246 -7.502 C 2.972 -7.502 2.406 -7.134 2.095 -6.172 L 1.104 -3.228 L -5.832 -3.228 L -6.823 -6.172 C -7.106 -7.05 -7.616 -7.502 -8.919 -7.502 C -10.192 -7.502 -10.646 -7.05 -10.646 -6.427 C -10.646 -6.087 -10.532 -5.691 -10.334 -5.153 L -5.039 9.172 C -4.502 10.616 -4.021 11.183 -2.294 11.183 C -.538 11.183 -.028 10.588 .51 9.172 L 5.747 -5.153 C 5.945 -5.691 6.058 -6.087 6.058 -6.427 " fill="#0E1B3D"></path>
<path transform="matrix(1,0,0,-1,285.8252,79.3096)" d="M 0 0 C 2.66 0 4.104 1.161 4.104 3.114 C 4.104 5.096 2.66 6.144 .282 6.144 C -.198 6.144 -.681 6.087 -1.133 6.002 L -1.133 .085 C -.794 .028 -.396 0 0 0 M 8.747 -8.323 C 8.747 -8.974 8.294 -9.342 6.963 -9.342 C 5.322 -9.342 4.868 -8.805 4.104 -7.644 L 1.047 -3.086 C .65 -3.114 .282 -3.142 -.114 -3.142 C -.539 -3.142 -.879 -3.114 -1.077 -3.086 L -1.077 -7.814 C -1.077 -8.833 -1.671 -9.342 -2.916 -9.342 C -4.162 -9.342 -4.785 -8.833 -4.785 -7.814 L -4.785 6.512 C -4.785 7.531 -4.757 8.578 -3.144 9.031 C -2.322 9.257 -.851 9.399 .339 9.399 C 5.124 9.399 8.011 7.219 8.011 3.369 C 8.011 .849 6.794 -1.076 4.67 -2.151 L 7.502 -6.058 C 8.407 -7.333 8.747 -7.785 8.747 -8.323 " fill="#0E1B3D"></path>
<path transform="matrix(1,0,0,-1,300.7158,87.1235)" d="M 0 0 C 0 -1.019 -.623 -1.528 -1.925 -1.528 C -3.228 -1.528 -3.851 -1.019 -3.851 0 L -3.851 15.628 C -3.851 16.647 -3.228 17.157 -1.925 17.157 C -.623 17.157 0 16.647 0 15.628 Z " fill="#0E1B3D"></path>
<path transform="matrix(1,0,0,-1,313.626,81.1494)" d="M 0 0 L -2.379 6.964 L -4.728 0 Z M 6.058 -6.427 C 6.058 -7.05 5.605 -7.502 4.246 -7.502 C 2.973 -7.502 2.406 -7.134 2.095 -6.172 L 1.104 -3.228 L -5.832 -3.228 L -6.823 -6.172 C -7.106 -7.05 -7.616 -7.502 -8.918 -7.502 C -10.192 -7.502 -10.646 -7.05 -10.646 -6.427 C -10.646 -6.087 -10.532 -5.691 -10.334 -5.153 L -5.039 9.172 C -4.502 10.616 -4.02 11.183 -2.294 11.183 C -.538 11.183 -.028 10.588 .51 9.172 L 5.747 -5.153 C 5.945 -5.691 6.058 -6.087 6.058 -6.427 " fill="#0E1B3D"></path>
<path transform="matrix(1,0,0,-1,196.8701,110.0825)" d="M 0 0 C 0 -.777 -.475 -1.165 -1.468 -1.165 C -2.461 -1.165 -2.936 -.777 -2.936 0 L -2.936 10.36 L -5.914 10.36 C -6.69 10.36 -7.079 10.792 -7.079 11.655 C -7.079 12.54 -6.69 12.971 -5.914 12.971 L 2.979 12.971 C 3.755 12.971 4.144 12.54 4.144 11.676 C 4.144 10.792 3.755 10.36 2.979 10.36 L 0 10.36 Z " fill="#0E1B3D"></path>
<path transform="matrix(1,0,0,-1,209.3887,102.6577)" d="M 0 0 C .777 0 1.166 -.41 1.166 -1.273 C 1.166 -2.137 .777 -2.547 0 -2.547 L -3.906 -2.547 L -3.906 -5.935 L 1.015 -5.935 C 1.792 -5.935 2.18 -6.346 2.18 -7.208 C 2.18 -8.072 1.792 -8.482 1.015 -8.482 L -5.223 -8.482 C -6.237 -8.482 -6.69 -8.029 -6.69 -7.015 L -6.69 4.079 C -6.69 5.093 -6.237 5.546 -5.223 5.546 L .885 5.546 C 1.662 5.546 2.05 5.137 2.05 4.273 C 2.05 3.41 1.662 3 .885 3 L -3.906 3 L -3.906 0 Z " fill="#0E1B3D"></path>
<path transform="matrix(1,0,0,-1,212.8418,100.9312)" d="M 0 0 C 0 2.438 1.985 4.058 4.812 4.058 C 6.043 4.058 7.382 3.712 8.288 3.129 C 8.85 2.763 9.087 2.46 9.087 2.007 C 9.087 1.359 8.525 .518 7.856 .518 C 7.619 .518 7.403 .647 6.949 .885 C 6.237 1.251 5.59 1.511 4.792 1.511 C 3.583 1.511 2.892 .906 2.892 .151 C 2.892 -2.029 9.389 -1.619 9.389 -6.216 C 9.389 -8.871 7.252 -10.446 4.382 -10.446 C 3 -10.446 1.77 -10.122 .669 -9.367 C .13 -9 -.151 -8.633 -.151 -8.18 C -.151 -7.511 .475 -6.691 1.102 -6.691 C 1.403 -6.691 1.641 -6.842 2.072 -7.101 C 2.763 -7.511 3.432 -7.899 4.403 -7.899 C 5.634 -7.899 6.496 -7.295 6.496 -6.367 C 6.496 -3.885 0 -4.403 0 0 " fill="#0E1B3D"></path>
<path transform="matrix(1,0,0,-1,230.1514,110.0825)" d="M 0 0 C 0 -.777 -.474 -1.165 -1.467 -1.165 C -2.46 -1.165 -2.935 -.777 -2.935 0 L -2.935 10.36 L -5.913 10.36 C -6.689 10.36 -7.078 10.792 -7.078 11.655 C -7.078 12.54 -6.689 12.971 -5.913 12.971 L 2.979 12.971 C 3.756 12.971 4.145 12.54 4.145 11.676 C 4.145 10.792 3.756 10.36 2.979 10.36 L 0 10.36 Z " fill="#0E1B3D"></path>
<path transform="matrix(1,0,0,-1,238.915,110.0825)" d="M 0 0 C 0 -.777 -.475 -1.165 -1.468 -1.165 C -2.46 -1.165 -2.936 -.777 -2.936 0 L -2.936 11.914 C -2.936 12.691 -2.46 13.08 -1.468 13.08 C -.475 13.08 0 12.691 0 11.914 Z " fill="#0E1B3D"></path>
<path transform="matrix(1,0,0,-1,244.2031,110.0825)" d="M 0 0 C 0 -.777 -.432 -1.165 -1.339 -1.165 C -2.245 -1.165 -2.698 -.777 -2.698 0 L -2.698 11.504 C -2.698 12.583 -2.05 13.08 -.799 13.08 C .453 13.08 1.079 12.583 1.532 11.784 L 6.69 2.806 L 6.69 11.914 C 6.69 12.691 7.144 13.08 8.05 13.08 C 8.957 13.08 9.41 12.691 9.41 11.914 L 9.41 .41 C 9.41 -.647 8.806 -1.165 7.619 -1.165 C 6.496 -1.165 5.936 -.733 5.417 .173 L 0 9.302 Z " fill="#0E1B3D"></path>
<path transform="matrix(1,0,0,-1,262.8945,105.8955)" d="M 0 0 C -.777 0 -1.166 .411 -1.166 1.273 C -1.166 2.137 -.777 2.547 0 2.547 L 3.15 2.547 C 4.165 2.547 4.618 2.094 4.618 1.079 L 4.618 -3 C 4.618 -3.863 4.338 -4.359 3.389 -4.77 C 2.547 -5.137 1.165 -5.396 -.151 -5.396 C -4.166 -5.396 -7.23 -2.914 -7.23 1.792 C -7.23 6.475 -4.23 9.022 -.26 9.022 C 1.079 9.022 2.331 8.742 3.323 8.159 C 4.035 7.749 4.445 7.295 4.445 6.799 C 4.445 6.173 3.798 5.396 3.15 5.396 C 2.805 5.396 2.524 5.612 2.071 5.871 C 1.402 6.238 .626 6.432 -.238 6.432 C -2.612 6.432 -4.209 4.9 -4.209 1.856 C -4.209 -1.251 -2.504 -2.849 -.043 -2.849 C .582 -2.849 1.252 -2.741 1.812 -2.568 L 1.812 0 Z " fill="#0E1B3D"></path>
<path transform="matrix(1,0,0,-1,280.917,106.9526)" d="M 0 0 C 0 .82 -.411 1.424 -1.338 1.727 C -1.749 1.856 -2.267 1.921 -2.87 1.921 L -4.166 1.921 L -4.166 -1.813 C -3.756 -1.878 -3.303 -1.899 -2.893 -1.899 C -.799 -1.899 0 -1.144 0 0 M -4.166 7.467 L -4.166 4.122 L -2.914 4.122 C -2.396 4.122 -1.943 4.187 -1.619 4.295 C -.842 4.554 -.454 5.093 -.454 5.849 C -.454 6.885 -1.209 7.554 -3.021 7.554 C -3.367 7.554 -3.756 7.532 -4.166 7.467 M 3.021 -.281 C 3.021 -2.72 .906 -4.338 -2.957 -4.338 C -3.842 -4.338 -4.942 -4.252 -5.655 -4.058 C -6.885 -3.712 -6.907 -2.914 -6.907 -2.137 L -6.907 7.792 C -6.907 8.546 -6.885 9.367 -5.655 9.712 C -5.029 9.885 -3.885 9.993 -2.957 9.993 C .626 9.993 2.547 8.546 2.547 6.237 C 2.547 4.662 1.618 3.54 -.108 3.129 C 1.985 2.741 3.021 1.424 3.021 -.281 " fill="#0E1B3D"></path>
<path transform="matrix(1,0,0,-1,292.1396,108.8521)" d="M 0 0 C 2.331 0 3.886 1.748 3.886 4.727 C 3.886 7.705 2.331 9.453 0 9.453 C -2.309 9.453 -3.862 7.705 -3.862 4.727 C -3.862 1.748 -2.309 0 0 0 M 0 12 C 4.187 12 6.886 9.194 6.886 4.727 C 6.886 .259 4.187 -2.547 0 -2.547 C -4.165 -2.547 -6.885 .259 -6.885 4.727 C -6.885 9.194 -4.165 12 0 12 " fill="#0E1B3D"></path>
<path transform="matrix(1,0,0,-1,307.7666,105.5283)" d="M 0 0 L -1.813 5.309 L -3.604 0 Z M 4.618 -4.899 C 4.618 -5.374 4.273 -5.719 3.237 -5.719 C 2.267 -5.719 1.835 -5.439 1.598 -4.705 L .842 -2.46 L -4.445 -2.46 L -5.202 -4.705 C -5.417 -5.374 -5.806 -5.719 -6.799 -5.719 C -7.77 -5.719 -8.115 -5.374 -8.115 -4.899 C -8.115 -4.64 -8.029 -4.338 -7.878 -3.928 L -3.842 6.993 C -3.432 8.094 -3.064 8.525 -1.748 8.525 C -.41 8.525 -.021 8.072 .389 6.993 L 4.382 -3.928 C 4.533 -4.338 4.618 -4.64 4.618 -4.899 " fill="#0E1B3D"></path>
<path transform="matrix(1,0,0,-1,317.7598,104.125499)" d="M 0 0 C 2.028 0 3.13 .885 3.13 2.374 C 3.13 3.885 2.028 4.684 .216 4.684 C -.15 4.684 -.519 4.64 -.863 4.576 L -.863 .065 C -.604 .022 -.302 0 0 0 M 6.669 -6.345 C 6.669 -6.842 6.323 -7.122 5.309 -7.122 C 4.058 -7.122 3.712 -6.712 3.13 -5.827 L .799 -2.353 C .496 -2.374 .216 -2.396 -.086 -2.396 C -.41 -2.396 -.669 -2.374 -.82 -2.353 L -.82 -5.957 C -.82 -6.734 -1.273 -7.122 -2.223 -7.122 C -3.173 -7.122 -3.647 -6.734 -3.647 -5.957 L -3.647 4.964 C -3.647 5.741 -3.626 6.54 -2.396 6.885 C -1.77 7.058 -.647 7.166 .259 7.166 C 3.906 7.166 6.107 5.504 6.107 2.568 C 6.107 .647 5.18 -.82 3.561 -1.64 L 5.72 -4.619 C 6.41 -5.59 6.669 -5.935 6.669 -6.345 " fill="#0E1B3D"></path>
<path transform="matrix(1,0,0,-1,330.2568,108.7441)" d="M 0 0 C 2.978 0 4.532 1.748 4.532 4.597 C 4.532 7.511 2.935 9.237 0 9.237 C -.367 9.237 -.756 9.216 -1.145 9.151 L -1.145 .086 C -.756 .021 -.367 0 0 0 M -.173 -2.547 C -1.037 -2.547 -2.094 -2.46 -2.828 -2.266 C -4.058 -1.921 -4.08 -1.122 -4.08 -.345 L -4.08 9.583 C -4.08 10.36 -4.058 11.158 -2.828 11.504 C -2.202 11.676 -1.037 11.784 -.087 11.784 C 4.834 11.784 7.554 9.13 7.554 4.662 C 7.554 .108 4.705 -2.547 -.173 -2.547 " fill="#0E1B3D"></path>
</g>
</g>
</g>
</g>
</svg>