<svg width="320" height="52" viewBox="0 0 320 52" fill="none" xmlns="http://www.w3.org/2000/svg">
<path d="M242.816 37.232C242.386 37.3907 242.023 37.47 241.728 37.47C241.456 37.4473 241.15 37.3113 240.81 37.062C240.38 36.654 240.232 36.246 240.368 35.838C240.527 35.4073 240.901 34.988 241.49 34.58C241.898 34.3307 242.193 34.1947 242.374 34.172C242.578 34.1493 242.884 34.2287 243.292 34.41C243.972 34.8407 244.267 35.3167 244.176 35.838C244.108 36.3593 243.655 36.824 242.816 37.232ZM249.548 37.232C249.118 37.3907 248.755 37.47 248.46 37.47C248.188 37.4473 247.882 37.3113 247.542 37.062C247.112 36.654 246.964 36.246 247.1 35.838C247.259 35.4073 247.633 34.988 248.222 34.58C248.63 34.3307 248.925 34.1947 249.106 34.172C249.31 34.1493 249.616 34.2287 250.024 34.41C250.704 34.8407 250.999 35.3167 250.908 35.838C250.84 36.3593 250.387 36.824 249.548 37.232ZM256.28 37.232C255.85 37.3907 255.487 37.47 255.192 37.47C254.92 37.4473 254.614 37.3113 254.274 37.062C253.844 36.654 253.696 36.246 253.832 35.838C253.991 35.4073 254.365 34.988 254.954 34.58C255.362 34.3307 255.657 34.1947 255.838 34.172C256.042 34.1493 256.348 34.2287 256.756 34.41C257.436 34.8407 257.731 35.3167 257.64 35.838C257.572 36.3593 257.119 36.824 256.28 37.232Z" fill="#1E8FCE"/>
<path d="M233.093 39.612C231.846 39.612 230.883 39.2493 230.203 38.524C229.545 37.7987 229.217 36.688 229.217 35.192C229.217 34.376 229.364 33.4807 229.659 32.506C229.976 31.5313 230.384 30.5793 230.883 29.65C231.404 28.7207 231.971 27.916 232.583 27.236C233.195 26.5333 233.807 26.046 234.419 25.774C234.645 25.6607 234.883 25.5813 235.133 25.536C235.405 25.468 235.665 25.434 235.915 25.434C236.187 25.434 236.481 25.4567 236.799 25.502C237.139 25.5247 237.456 25.5927 237.751 25.706C238.272 25.8647 238.725 26.1707 239.111 26.624C239.519 27.0773 239.723 27.7347 239.723 28.596C239.723 28.8227 239.7 29.072 239.655 29.344C239.609 29.5933 239.53 29.8427 239.417 30.092C239.122 30.84 238.669 31.554 238.057 32.234C237.467 32.914 236.844 33.39 236.187 33.662C236.005 33.7527 235.824 33.8207 235.643 33.866C235.484 33.8887 235.314 33.9 235.133 33.9C234.657 33.9 234.226 33.832 233.841 33.696C233.478 33.56 233.138 33.3787 232.821 33.152L232.549 32.914L232.379 33.254C232.22 33.6847 232.107 34.0473 232.039 34.342C231.993 34.6367 231.971 34.852 231.971 34.988C231.971 35.26 231.982 35.5433 232.005 35.838C232.027 36.11 232.095 36.3367 232.209 36.518C232.299 36.6313 232.413 36.722 232.549 36.79C232.707 36.858 232.9 36.892 233.127 36.892C233.263 36.892 233.387 36.892 233.501 36.892C233.637 36.8693 233.75 36.8467 233.841 36.824C234.249 36.7333 234.577 36.586 234.827 36.382C235.099 36.1553 235.382 35.9627 235.677 35.804L235.813 35.736L235.779 35.634C236.164 35.43 236.425 35.3053 236.561 35.26C236.697 35.192 236.799 35.1353 236.867 35.09C236.957 34.9993 237.059 34.954 237.173 34.954C237.49 34.9087 237.796 34.9993 238.091 35.226C238.408 35.43 238.567 35.6907 238.567 36.008C238.567 36.144 238.465 36.3593 238.261 36.654C238.079 36.9487 237.841 37.2433 237.547 37.538C237.275 37.81 236.991 38.0253 236.697 38.184C236.629 38.2067 236.561 38.2407 236.493 38.286C236.425 38.3087 236.357 38.3427 236.289 38.388H236.323C236.119 38.66 235.915 38.796 235.711 38.796H235.439C235.348 38.9547 235.053 39.1247 234.555 39.306C234.056 39.51 233.569 39.612 233.093 39.612ZM234.861 31.418C235.065 31.418 235.246 31.384 235.405 31.316C235.586 31.248 235.756 31.1687 235.915 31.078C236.459 30.6927 236.81 30.194 236.969 29.582C237.127 28.97 237.071 28.5053 236.799 28.188C236.753 28.12 236.697 28.0747 236.629 28.052C236.561 28.0067 236.481 27.984 236.391 27.984C236.141 27.984 235.858 28.0633 235.541 28.222C235.246 28.3807 234.951 28.6073 234.657 28.902C234.362 29.1967 234.09 29.548 233.841 29.956L233.399 30.67C233.444 30.6473 233.478 30.636 233.501 30.636C233.546 30.6133 233.58 30.602 233.603 30.602C233.807 30.602 233.943 30.67 234.011 30.806C234.079 30.942 234.158 31.078 234.249 31.214C234.362 31.35 234.566 31.418 234.861 31.418Z" fill="#1E8FCE"/>
<path d="M218.427 38.49C218.268 38.49 218.053 38.3767 217.781 38.15C217.532 37.9233 217.384 37.7193 217.339 37.538C217.271 37.3567 217.271 37.096 217.339 36.756C217.43 36.3933 217.554 35.974 217.713 35.498C217.894 34.75 218.019 34.206 218.087 33.866C218.155 33.526 218.223 33.2313 218.291 32.982C218.359 32.7327 218.45 32.37 218.563 31.894C218.699 31.5993 218.801 31.316 218.869 31.044C218.96 30.7493 219.05 30.4547 219.141 30.16C219.254 29.8653 219.379 29.5707 219.515 29.276C219.674 28.6867 219.866 28.1313 220.093 27.61C220.342 27.066 220.58 26.6127 220.807 26.25C220.852 26.182 220.954 26.0573 221.113 25.876C221.272 25.6947 221.396 25.604 221.487 25.604C221.668 25.4227 221.918 25.366 222.235 25.434C222.552 25.4793 222.824 25.5927 223.051 25.774C223.323 26.0687 223.47 26.42 223.493 26.828C223.538 27.2133 223.38 27.7573 223.017 28.46C222.745 29.1627 222.484 29.718 222.235 30.126C222.008 30.5113 221.782 30.9647 221.555 31.486C221.804 31.1233 222.11 30.7493 222.473 30.364C222.836 29.9787 223.119 29.6727 223.323 29.446C223.618 29.1287 223.89 28.8793 224.139 28.698C224.411 28.494 224.774 28.2447 225.227 27.95C225.612 27.678 225.998 27.4287 226.383 27.202C226.791 26.9753 227.278 26.9073 227.845 26.998C228.072 26.9753 228.31 27.0887 228.559 27.338C228.831 27.5873 229.035 27.916 229.171 28.324C229.33 28.7093 229.33 29.1287 229.171 29.582C228.65 29.4687 228.185 29.4913 227.777 29.65C227.369 29.786 227.018 29.956 226.723 30.16C226.451 30.364 226.236 30.5227 226.077 30.636C225.85 30.772 225.59 30.9533 225.295 31.18C225 31.384 224.683 31.622 224.343 31.894C224.003 32.1433 223.64 32.4267 223.255 32.744C222.711 33.1973 222.303 33.594 222.031 33.934C221.759 34.274 221.544 34.6367 221.385 35.022C221.249 35.362 221.079 35.77 220.875 36.246C220.671 36.722 220.478 37.1527 220.297 37.538C220.116 37.9007 219.968 38.1273 219.855 38.218C219.742 38.4447 219.504 38.5693 219.141 38.592C218.801 38.6147 218.563 38.5807 218.427 38.49Z" fill="#1E8FCE"/>
<path d="M207.4 38.762C207.106 38.762 206.868 38.7053 206.686 38.592C206.528 38.4787 206.324 38.32 206.074 38.116C205.644 37.6627 205.292 37.1753 205.02 36.654C204.771 36.1327 204.68 35.6793 204.748 35.294C204.816 35.1127 204.839 34.9427 204.816 34.784C204.816 34.6027 204.816 34.512 204.816 34.512C204.703 34.3987 204.669 34.3307 204.714 34.308C204.76 34.2627 204.805 34.1947 204.85 34.104C204.986 34.104 205.032 33.9793 204.986 33.73C204.941 33.5487 205.009 33.1633 205.19 32.574C205.394 31.962 205.666 31.384 206.006 30.84C206.142 30.6133 206.346 30.3187 206.618 29.956C206.89 29.5707 207.185 29.1967 207.502 28.834C207.842 28.4487 208.148 28.1427 208.42 27.916C208.987 27.44 209.508 27.0547 209.984 26.76C210.483 26.4653 210.982 26.2613 211.48 26.148C211.979 26.0347 212.489 25.978 213.01 25.978C213.554 25.978 213.996 26.1593 214.336 26.522C214.858 26.7487 215.22 27.0547 215.424 27.44C215.651 27.8253 215.798 28.324 215.866 28.936C215.934 29.616 215.866 30.4547 215.662 31.452C215.458 32.4267 214.903 33.56 213.996 34.852C213.43 35.668 212.874 36.3027 212.33 36.756C211.786 37.2093 211.186 37.6287 210.528 38.014C210.052 38.3313 209.542 38.524 208.998 38.592C208.454 38.66 207.922 38.7167 207.4 38.762ZM210.868 34.614C211.367 34.1833 211.718 33.7073 211.922 33.186C212.149 32.6647 212.387 32.0527 212.636 31.35C212.727 31.214 212.784 30.9873 212.806 30.67C212.852 30.3527 212.863 30.0467 212.84 29.752C212.818 29.4347 212.738 29.2533 212.602 29.208C212.398 29.0493 212.194 29.0153 211.99 29.106C211.786 29.174 211.526 29.3213 211.208 29.548C210.528 30.1147 209.894 30.772 209.304 31.52C208.738 32.2453 208.341 33.1407 208.114 34.206C208.046 34.7727 208.103 35.2033 208.284 35.498C208.488 35.77 208.806 35.8493 209.236 35.736C209.69 35.6 210.234 35.226 210.868 34.614Z" fill="#1E8FCE"/>
<path d="M185.222 37.742C185.154 37.6513 185.007 37.538 184.78 37.402C184.553 37.266 184.44 37.1527 184.44 37.062C184.44 37.0167 184.429 36.96 184.406 36.892C184.406 36.824 184.361 36.79 184.27 36.79C184.202 36.722 184.236 36.4727 184.372 36.042C184.531 35.6113 184.735 35.1013 184.984 34.512C185.256 33.9227 185.539 33.356 185.834 32.812C186.129 32.2453 186.378 31.792 186.582 31.452C186.695 31.384 186.763 31.2933 186.786 31.18C186.831 31.044 186.831 30.976 186.786 30.976C186.786 30.976 186.843 30.874 186.956 30.67C187.092 30.4433 187.194 30.296 187.262 30.228C187.443 29.9107 187.579 29.5933 187.67 29.276C187.761 28.936 187.783 28.6527 187.738 28.426C187.647 28.3127 187.545 28.2787 187.432 28.324C187.319 28.3693 187.262 28.392 187.262 28.392C187.171 28.4147 187.035 28.46 186.854 28.528C186.695 28.5733 186.548 28.6413 186.412 28.732C185.891 29.0947 185.505 29.276 185.256 29.276C185.029 29.276 184.803 29.004 184.576 28.46C184.485 28.2107 184.451 27.9727 184.474 27.746C184.497 27.5193 184.587 27.338 184.746 27.202C184.927 27.0433 185.154 26.8847 185.426 26.726C185.698 26.5447 185.879 26.42 185.97 26.352C186.219 26.1933 186.571 26.0233 187.024 25.842C187.477 25.6607 187.749 25.5587 187.84 25.536C188.429 25.3547 188.928 25.3547 189.336 25.536C189.744 25.6947 190.05 26.012 190.254 26.488C190.571 26.8733 190.73 27.2813 190.73 27.712C190.73 28.1427 190.571 28.6753 190.254 29.31L189.914 29.82C189.801 30.0467 189.778 30.16 189.846 30.16C189.937 30.16 190.039 30.0807 190.152 29.922C190.22 29.8313 190.356 29.6953 190.56 29.514C190.764 29.3327 190.9 29.242 190.968 29.242C190.968 29.242 190.991 29.2307 191.036 29.208C191.104 29.1853 191.138 29.0947 191.138 28.936C191.206 28.868 191.274 28.8 191.342 28.732C191.433 28.664 191.478 28.63 191.478 28.63C191.569 28.63 191.682 28.5847 191.818 28.494C191.977 28.3807 192.237 28.1767 192.6 27.882C192.849 27.7007 193.076 27.61 193.28 27.61C193.801 27.4513 194.221 27.6213 194.538 28.12C194.878 28.6187 195.048 29.2647 195.048 30.058L194.334 31.894L195.558 30.398C195.694 30.2167 195.83 30.058 195.966 29.922C196.125 29.786 196.261 29.6727 196.374 29.582C196.419 29.4233 196.487 29.3327 196.578 29.31C196.669 29.2873 196.714 29.276 196.714 29.276C196.714 29.276 196.737 29.276 196.782 29.276C196.827 29.2533 196.85 29.208 196.85 29.14C196.963 29.0493 197.088 28.97 197.224 28.902C197.36 28.8113 197.451 28.7207 197.496 28.63C197.881 28.4713 198.346 28.4487 198.89 28.562C199.434 28.6527 199.819 28.936 200.046 29.412C200.205 29.684 200.352 29.922 200.488 30.126C200.624 30.33 200.692 30.636 200.692 31.044C200.647 31.384 200.601 31.622 200.556 31.758C200.533 31.894 200.511 32.0413 200.488 32.2C200.465 32.336 200.431 32.5853 200.386 32.948C200.295 33.1293 200.239 33.322 200.216 33.526C200.216 33.73 200.216 33.9227 200.216 34.104C200.216 34.3987 200.227 34.6027 200.25 34.716C200.273 34.8067 200.363 34.852 200.522 34.852C200.839 34.784 201.1 34.682 201.304 34.546C201.531 34.3873 201.78 34.1833 202.052 33.934C202.392 33.6167 202.687 33.5713 202.936 33.798C203.208 34.002 203.378 34.24 203.446 34.512C203.491 34.6027 203.446 34.8067 203.31 35.124C203.174 35.4413 203.015 35.7473 202.834 36.042C202.653 36.3367 202.505 36.484 202.392 36.484C202.324 36.484 202.188 36.5747 201.984 36.756C201.78 36.9373 201.621 37.062 201.508 37.13C201.349 37.2887 201.191 37.436 201.032 37.572C200.896 37.708 200.737 37.776 200.556 37.776C200.465 37.776 200.352 37.81 200.216 37.878C200.103 37.9233 199.967 37.946 199.808 37.946C199.581 38.014 199.23 37.98 198.754 37.844C198.301 37.708 198.006 37.3907 197.87 36.892C197.779 36.6427 197.643 36.3253 197.462 35.94C197.303 35.5547 197.269 35.0787 197.36 34.512C197.451 34.104 197.507 33.73 197.53 33.39C197.553 33.05 197.598 32.812 197.666 32.676C197.666 32.608 197.666 32.4493 197.666 32.2C197.666 31.928 197.632 31.792 197.564 31.792C197.473 31.792 197.303 31.9053 197.054 32.132C196.805 32.3587 196.51 32.6647 196.17 33.05C195.83 33.4127 195.479 33.8093 195.116 34.24C194.776 34.6707 194.47 35.1013 194.198 35.532C193.994 35.7813 193.813 36.0873 193.654 36.45C193.495 36.8127 193.382 37.0167 193.314 37.062C193.155 37.2433 192.883 37.266 192.498 37.13C192.135 36.994 191.863 36.7787 191.682 36.484C191.614 36.348 191.535 36.2687 191.444 36.246C191.353 36.2007 191.274 36.1327 191.206 36.042C191.161 35.9287 191.161 35.7133 191.206 35.396C191.274 35.0787 191.421 34.5687 191.648 33.866C191.897 33.0953 192.113 32.404 192.294 31.792C192.498 31.1573 192.6 30.84 192.6 30.84C192.6 30.7493 192.43 30.84 192.09 31.112C191.75 31.3613 191.353 31.6787 190.9 32.064C190.696 32.3133 190.424 32.6307 190.084 33.016C189.767 33.4013 189.393 33.8547 188.962 34.376C188.554 34.8973 188.089 35.5093 187.568 36.212C186.911 37.1413 186.412 37.708 186.072 37.912C185.755 38.116 185.471 38.0593 185.222 37.742Z" fill="#1E8FCE"/>
<path d="M166.958 38.694C166.074 38.3313 165.462 37.742 165.122 36.926C164.782 36.11 164.692 35.022 164.85 33.662C164.896 32.9593 164.873 32.4947 164.782 32.268C164.692 32.0187 164.522 31.7807 164.272 31.554C164.204 31.4633 164.046 31.316 163.796 31.112C163.547 30.8853 163.434 30.7153 163.456 30.602C163.434 30.4433 163.468 30.2507 163.558 30.024C163.649 29.7747 163.728 29.6387 163.796 29.616C163.955 29.548 164.114 29.4687 164.272 29.378C164.454 29.2873 164.59 29.2647 164.68 29.31C164.771 29.31 164.907 29.3667 165.088 29.48C165.292 29.5933 165.394 29.6953 165.394 29.786C165.485 29.9447 165.621 29.8767 165.802 29.582C166.006 29.2873 166.222 28.9133 166.448 28.46C166.675 28.0973 166.958 27.7573 167.298 27.44C167.638 27.1227 167.978 26.8393 168.318 26.59C168.681 26.318 168.987 26.114 169.236 25.978C169.35 25.9327 169.565 25.8647 169.882 25.774C170.222 25.6833 170.574 25.6153 170.936 25.57C171.299 25.502 171.571 25.4793 171.752 25.502C172.16 25.5247 172.591 25.6947 173.044 26.012C173.498 26.3293 173.849 26.624 174.098 26.896C174.393 27.1 174.586 27.4173 174.676 27.848C174.79 28.256 174.835 28.6867 174.812 29.14C174.79 29.5933 174.699 29.9787 174.54 30.296C174.472 30.5227 174.234 30.84 173.826 31.248C173.418 31.656 172.965 32.0527 172.466 32.438C171.99 32.8007 171.582 33.05 171.242 33.186C170.948 33.254 170.596 33.3107 170.188 33.356C169.78 33.3787 169.395 33.3787 169.032 33.356C168.692 33.3107 168.454 33.254 168.318 33.186C168.16 33.0953 168.024 33.1293 167.91 33.288C167.82 33.424 167.74 33.8093 167.672 34.444C167.65 34.6933 167.65 34.9087 167.672 35.09C167.718 35.2713 167.763 35.4073 167.808 35.498C167.967 35.77 168.126 35.974 168.284 36.11C168.443 36.2233 168.738 36.2573 169.168 36.212C169.599 36.1667 170.03 35.906 170.46 35.43C170.914 34.9313 171.322 34.5347 171.684 34.24C171.775 34.0813 171.968 33.9793 172.262 33.934C172.58 33.866 172.954 33.8887 173.384 34.002C173.634 34.1607 173.747 34.41 173.724 34.75C173.724 35.09 173.543 35.5887 173.18 36.246C173.112 36.4047 172.92 36.6427 172.602 36.96C172.308 37.2547 171.979 37.5607 171.616 37.878C171.276 38.1727 170.993 38.388 170.766 38.524C170.086 38.8867 169.418 39.0567 168.76 39.034C168.103 39.0113 167.502 38.898 166.958 38.694ZM169.474 31.044C169.814 30.9533 170.098 30.8627 170.324 30.772C170.574 30.6813 170.812 30.534 171.038 30.33C171.265 30.126 171.526 29.82 171.82 29.412C171.911 29.1627 171.956 28.9473 171.956 28.766C171.979 28.5847 171.968 28.4713 171.922 28.426C171.741 28.2447 171.537 28.188 171.31 28.256C171.106 28.3013 170.88 28.4147 170.63 28.596C170.472 28.664 170.245 28.8113 169.95 29.038C169.678 29.242 169.406 29.48 169.134 29.752C168.885 30.0013 168.681 30.2393 168.522 30.466C168.386 30.67 168.364 30.7947 168.454 30.84C168.409 30.9307 168.534 30.9873 168.828 31.01C169.146 31.0327 169.361 31.044 169.474 31.044Z" fill="#1E8FCE"/>
<path d="M161.167 38.184C161.008 38.1387 160.759 37.9913 160.419 37.742C160.079 37.4927 159.773 37.1187 159.501 36.62C159.252 36.1213 159.138 35.4753 159.161 34.682C159.184 34.002 159.229 33.526 159.297 33.254C159.388 32.9593 159.354 32.8007 159.195 32.778C159.082 32.7553 158.855 32.8573 158.515 33.084C158.175 33.3107 157.733 33.6733 157.189 34.172C156.645 34.6707 155.988 35.328 155.217 36.144C154.945 36.3707 154.639 36.654 154.299 36.994C153.982 37.3113 153.653 37.5493 153.313 37.708C152.996 37.8667 152.712 37.8327 152.463 37.606L152.123 37.3C151.964 37.164 151.828 36.9827 151.715 36.756C151.602 36.5293 151.568 36.3367 151.613 36.178L152.565 33.526C152.837 32.9367 153.018 32.506 153.109 32.234C153.222 31.962 153.268 31.792 153.245 31.724C153.245 31.656 153.188 31.6333 153.075 31.656C152.939 31.6787 152.746 31.8033 152.497 32.03C152.248 32.234 152.078 32.404 151.987 32.54C151.896 32.54 151.772 32.6307 151.613 32.812C151.477 32.9933 151.341 33.152 151.205 33.288C151.069 33.424 150.831 33.6847 150.491 34.07C150.151 34.4327 149.788 34.818 149.403 35.226C149.108 35.498 148.768 35.8607 148.383 36.314C147.998 36.7673 147.658 37.1753 147.363 37.538C147.068 37.9007 146.887 38.082 146.819 38.082C146.411 38.0593 146.037 37.9233 145.697 37.674C145.38 37.4247 145.164 37.1187 145.051 36.756C144.915 36.5067 144.904 36.0533 145.017 35.396C145.13 34.716 145.346 33.6393 145.663 32.166C145.754 31.826 145.833 31.5313 145.901 31.282C145.992 31.0327 146.082 30.7833 146.173 30.534C146.264 30.2847 146.366 30.0013 146.479 29.684C146.615 29.3667 146.785 28.9813 146.989 28.528C147.102 28.2107 147.148 27.916 147.125 27.644C147.102 27.3493 147.08 27.1113 147.057 26.93C147.057 26.59 147.159 26.318 147.363 26.114C147.59 25.91 147.839 25.774 148.111 25.706C148.383 25.6153 148.598 25.5927 148.757 25.638C149.392 25.706 149.822 25.9327 150.049 26.318C150.276 26.7033 150.4 27.0773 150.423 27.44C150.446 27.78 150.4 28.086 150.287 28.358C150.174 28.63 150.083 28.8567 150.015 29.038L149.641 29.956C149.414 30.4773 149.244 30.8627 149.131 31.112C149.04 31.3387 148.984 31.4973 148.961 31.588C148.961 31.656 148.961 31.724 148.961 31.792C148.984 31.86 149.086 31.826 149.267 31.69C149.448 31.554 149.664 31.3727 149.913 31.146C150.185 30.8967 150.434 30.6813 150.661 30.5C151.069 30.16 151.5 29.82 151.953 29.48C152.429 29.1173 152.894 28.8 153.347 28.528C153.8 28.256 154.174 28.0747 154.469 27.984C154.854 28.052 155.206 28.2447 155.523 28.562C155.863 28.8793 156.078 29.1513 156.169 29.378C156.282 29.718 156.294 30.024 156.203 30.296C156.135 30.568 156.078 30.8173 156.033 31.044C156.01 31.1347 155.965 31.3047 155.897 31.554C155.829 31.8033 155.761 32.0413 155.693 32.268C155.625 32.472 155.591 32.574 155.591 32.574C155.591 32.574 155.659 32.506 155.795 32.37C155.931 32.234 156.112 32.0753 156.339 31.894C156.566 31.69 156.792 31.5087 157.019 31.35C158.152 30.4887 159.048 29.9447 159.705 29.718C160.385 29.4687 160.963 29.6613 161.439 30.296C161.711 30.5453 161.881 30.8853 161.949 31.316C162.04 31.7467 162.085 32.3247 162.085 33.05C162.108 33.3447 162.13 33.6733 162.153 34.036C162.198 34.3987 162.244 34.716 162.289 34.988C162.357 35.26 162.414 35.43 162.459 35.498C162.527 35.5887 162.652 35.6793 162.833 35.77C163.014 35.838 163.184 35.8947 163.343 35.94C163.66 36.0987 163.83 36.3933 163.853 36.824C163.898 37.232 163.74 37.5493 163.377 37.776C163.037 37.98 162.674 38.1047 162.289 38.15C161.926 38.1953 161.552 38.2067 161.167 38.184Z" fill="#1E8FCE"/>
<path d="M128.568 39.238C127.366 39.238 126.482 38.8527 125.916 38.082C125.757 37.7193 125.678 37.3567 125.678 36.994C125.7 36.6087 125.791 36.3367 125.95 36.178C126.108 35.9967 126.301 36.0307 126.528 36.28C126.822 36.4613 127.242 36.552 127.786 36.552C128.058 36.552 128.296 36.552 128.5 36.552C128.726 36.5293 128.987 36.5067 129.282 36.484C129.803 36.4387 130.132 36.28 130.268 36.008C130.426 35.736 130.392 35.5093 130.166 35.328H130.2C129.588 35.1693 128.987 34.9427 128.398 34.648C127.808 34.3533 127.31 34.0247 126.902 33.662C126.494 33.2767 126.256 32.914 126.188 32.574C126.006 31.826 126.052 31.0553 126.324 30.262C126.596 29.4687 126.992 28.7773 127.514 28.188C127.718 28.052 128.001 27.8593 128.364 27.61C128.726 27.338 128.987 27.1907 129.146 27.168V27.202C129.576 26.7487 130.064 26.386 130.608 26.114C131.152 25.8193 131.786 25.5473 132.512 25.298L133.056 25.23C133.328 25.1847 133.566 25.162 133.77 25.162C133.747 25.162 133.804 25.1847 133.94 25.23C134.076 25.2753 134.189 25.3093 134.28 25.332C134.416 25.4 134.552 25.434 134.688 25.434C135.005 25.4793 135.311 25.6493 135.606 25.944C135.923 26.216 136.172 26.5447 136.354 26.93C136.558 27.2927 136.637 27.6327 136.592 27.95C136.524 28.4713 136.331 28.9927 136.014 29.514C135.696 30.0127 135.356 30.296 134.994 30.364C135.039 30.3413 134.994 30.296 134.858 30.228C134.722 30.16 134.597 30.092 134.484 30.024L134.348 30.092C134.348 30.092 134.336 30.058 134.314 29.99C134.314 29.922 134.291 29.8427 134.246 29.752C134.155 29.5933 134.087 29.4233 134.042 29.242C134.019 29.0607 134.019 28.8567 134.042 28.63C134.087 28.3807 134.098 28.2333 134.076 28.188C134.053 28.1427 133.917 28.1087 133.668 28.086C133.373 28.018 132.999 28.052 132.546 28.188C132.092 28.3013 131.673 28.5053 131.288 28.8C130.834 29.0947 130.494 29.3327 130.268 29.514C130.064 29.6953 129.905 29.8767 129.792 30.058C129.678 30.2167 129.554 30.4547 129.418 30.772C129.327 30.9307 129.248 31.078 129.18 31.214C129.112 31.3273 129.078 31.4407 129.078 31.554C129.078 31.7807 129.27 32.0187 129.656 32.268C130.041 32.4947 130.619 32.7667 131.39 33.084C132.002 33.3333 132.398 33.6733 132.58 34.104C132.784 34.5347 132.965 34.9427 133.124 35.328C133.169 35.4187 133.214 35.5887 133.26 35.838C133.328 36.0647 133.339 36.2007 133.294 36.246C133.339 36.2913 133.362 36.3367 133.362 36.382V36.348C133.543 36.688 133.509 37.0507 133.26 37.436C133.033 37.7987 132.67 38.1387 132.172 38.456C131.673 38.7507 131.106 38.966 130.472 39.102H130.506C130.166 39.1473 129.826 39.1813 129.486 39.204C129.168 39.2267 128.862 39.238 128.568 39.238Z" fill="#1E8FCE"/>
<path d="M117.28 39.612C116.034 39.612 115.07 39.2493 114.39 38.524C113.733 37.7987 113.404 36.688 113.404 35.192C113.404 34.376 113.552 33.4807 113.846 32.506C114.164 31.5313 114.572 30.5793 115.07 29.65C115.592 28.7207 116.158 27.916 116.77 27.236C117.382 26.5333 117.994 26.046 118.606 25.774C118.833 25.6607 119.071 25.5813 119.32 25.536C119.592 25.468 119.853 25.434 120.102 25.434C120.374 25.434 120.669 25.4567 120.986 25.502C121.326 25.5247 121.644 25.5927 121.938 25.706C122.46 25.8647 122.913 26.1707 123.298 26.624C123.706 27.0773 123.91 27.7347 123.91 28.596C123.91 28.8227 123.888 29.072 123.842 29.344C123.797 29.5933 123.718 29.8427 123.604 30.092C123.31 30.84 122.856 31.554 122.244 32.234C121.655 32.914 121.032 33.39 120.374 33.662C120.193 33.7527 120.012 33.8207 119.83 33.866C119.672 33.8887 119.502 33.9 119.32 33.9C118.844 33.9 118.414 33.832 118.028 33.696C117.666 33.56 117.326 33.3787 117.008 33.152L116.736 32.914L116.566 33.254C116.408 33.6847 116.294 34.0473 116.226 34.342C116.181 34.6367 116.158 34.852 116.158 34.988C116.158 35.26 116.17 35.5433 116.192 35.838C116.215 36.11 116.283 36.3367 116.396 36.518C116.487 36.6313 116.6 36.722 116.736 36.79C116.895 36.858 117.088 36.892 117.314 36.892C117.45 36.892 117.575 36.892 117.688 36.892C117.824 36.8693 117.938 36.8467 118.028 36.824C118.436 36.7333 118.765 36.586 119.014 36.382C119.286 36.1553 119.57 35.9627 119.864 35.804L120 35.736L119.966 35.634C120.352 35.43 120.612 35.3053 120.748 35.26C120.884 35.192 120.986 35.1353 121.054 35.09C121.145 34.9993 121.247 34.954 121.36 34.954C121.678 34.9087 121.984 34.9993 122.278 35.226C122.596 35.43 122.754 35.6907 122.754 36.008C122.754 36.144 122.652 36.3593 122.448 36.654C122.267 36.9487 122.029 37.2433 121.734 37.538C121.462 37.81 121.179 38.0253 120.884 38.184C120.816 38.2067 120.748 38.2407 120.68 38.286C120.612 38.3087 120.544 38.3427 120.476 38.388H120.51C120.306 38.66 120.102 38.796 119.898 38.796H119.626C119.536 38.9547 119.241 39.1247 118.742 39.306C118.244 39.51 117.756 39.612 117.28 39.612ZM119.048 31.418C119.252 31.418 119.434 31.384 119.592 31.316C119.774 31.248 119.944 31.1687 120.102 31.078C120.646 30.6927 120.998 30.194 121.156 29.582C121.315 28.97 121.258 28.5053 120.986 28.188C120.941 28.12 120.884 28.0747 120.816 28.052C120.748 28.0067 120.669 27.984 120.578 27.984C120.329 27.984 120.046 28.0633 119.728 28.222C119.434 28.3807 119.139 28.6073 118.844 28.902C118.55 29.1967 118.278 29.548 118.028 29.956L117.586 30.67C117.632 30.6473 117.666 30.636 117.688 30.636C117.734 30.6133 117.768 30.602 117.79 30.602C117.994 30.602 118.13 30.67 118.198 30.806C118.266 30.942 118.346 31.078 118.436 31.214C118.55 31.35 118.754 31.418 119.048 31.418Z" fill="#1E8FCE"/>
<path d="M102.013 38.762C101.673 38.6487 101.367 38.4673 101.095 38.218C100.846 37.9687 100.744 37.5607 100.789 36.994C100.835 36.654 100.903 36.3027 100.993 35.94C101.084 35.5547 101.197 35.1807 101.333 34.818C101.401 34.41 101.481 34.002 101.571 33.594C101.685 33.186 101.866 32.8007 102.115 32.438C102.41 31.5993 102.716 30.772 103.033 29.956C103.351 29.1173 103.623 28.2447 103.849 27.338C104.189 26.522 104.495 25.7967 104.767 25.162C105.062 24.5273 105.413 23.7113 105.821 22.714C106.048 22.1927 106.241 21.6147 106.399 20.98C106.581 20.3227 106.853 19.7447 107.215 19.246C107.374 19.042 107.487 18.872 107.555 18.736C107.646 18.5773 107.737 18.43 107.827 18.294C107.986 17.9767 108.224 17.8293 108.541 17.852C108.881 17.8747 109.108 17.9653 109.221 18.124C109.607 18.2827 109.879 18.5773 110.037 19.008C110.196 19.416 110.253 19.7107 110.207 19.892C110.207 20.1413 110.117 20.4133 109.935 20.708C109.845 20.7987 109.754 20.9347 109.663 21.116C109.573 21.2747 109.437 21.49 109.255 21.762C109.165 22.0567 109.074 22.3513 108.983 22.646C108.893 22.9407 108.791 23.2127 108.677 23.462C108.564 23.7113 108.439 23.9607 108.303 24.21C108.167 24.4593 108.077 24.6633 108.031 24.822C107.827 25.3433 107.601 25.8533 107.351 26.352C107.125 26.828 106.921 27.338 106.739 27.882C106.558 28.4033 106.365 28.9587 106.161 29.548C105.957 30.1147 105.697 30.6587 105.379 31.18C105.221 31.4067 105.13 31.7127 105.107 32.098C105.107 32.4833 105.062 32.8573 104.971 33.22C104.813 33.628 104.665 34.002 104.529 34.342C104.416 34.682 104.359 34.8973 104.359 34.988C104.201 35.4867 104.076 35.9853 103.985 36.484C103.895 36.96 103.747 37.3793 103.543 37.742C103.543 38.286 103.396 38.626 103.101 38.762C102.807 38.898 102.444 38.898 102.013 38.762ZM109.799 39.068C109.437 39.0227 109.165 38.9547 108.983 38.864C108.802 38.7507 108.462 38.5127 107.963 38.15C107.691 37.878 107.351 37.4587 106.943 36.892C106.535 36.3253 106.127 35.7247 105.719 35.09C105.311 34.4327 104.949 33.8773 104.631 33.424L106.501 31.044C106.796 31.4067 107.034 31.7467 107.215 32.064C107.397 32.3813 107.544 32.5967 107.657 32.71C108.179 33.4807 108.587 34.104 108.881 34.58C109.176 35.056 109.425 35.4413 109.629 35.736C109.856 36.0307 110.105 36.2913 110.377 36.518C110.649 36.7447 111.001 36.9827 111.431 37.232C111.499 37.2773 111.567 37.3907 111.635 37.572C111.703 37.7307 111.726 37.9007 111.703 38.082C111.658 38.354 111.488 38.5807 111.193 38.762C110.921 38.9207 110.457 39.0227 109.799 39.068ZM104.869 32.778C104.733 32.3927 104.699 31.962 104.767 31.486C104.858 30.9873 105.051 30.6587 105.345 30.5C105.436 30.3413 105.527 30.2393 105.617 30.194C105.731 30.126 105.799 30.0467 105.821 29.956C105.867 29.8653 105.98 29.7407 106.161 29.582C106.365 29.4233 106.547 29.276 106.705 29.14C107.068 28.9133 107.465 28.6413 107.895 28.324C108.349 27.984 108.779 27.644 109.187 27.304C109.618 26.964 109.969 26.6693 110.241 26.42C110.536 26.1707 110.717 26.012 110.785 25.944C110.853 25.8533 110.989 25.7967 111.193 25.774C111.42 25.7513 111.635 25.7853 111.839 25.876C112.111 25.944 112.327 26.0913 112.485 26.318C112.667 26.5447 112.757 26.862 112.757 27.27C112.825 27.5193 112.678 27.8253 112.315 28.188C111.975 28.528 111.545 28.868 111.023 29.208C110.842 29.3213 110.593 29.4913 110.275 29.718C109.981 29.9447 109.72 30.16 109.493 30.364C109.335 30.4547 109.097 30.6133 108.779 30.84C108.485 31.044 108.224 31.248 107.997 31.452C107.816 31.5653 107.601 31.7693 107.351 32.064C107.125 32.336 106.864 32.54 106.569 32.676C105.844 33.356 105.402 33.6847 105.243 33.662C105.107 33.6393 104.983 33.3447 104.869 32.778Z" fill="#1E8FCE"/>
<path d="M86.7717 38.286C86.681 38.1047 86.477 37.9233 86.1597 37.742C85.865 37.5607 85.7177 37.4247 85.7177 37.334C85.7177 37.2433 85.661 37.1073 85.5477 36.926C85.457 36.722 85.3663 36.5747 85.2757 36.484C85.1623 36.348 85.1963 36.0193 85.3777 35.498C85.559 34.954 85.831 34.2967 86.1937 33.526C86.5563 32.7553 86.953 31.9733 87.3837 31.18C87.565 30.9987 87.7463 30.7607 87.9277 30.466C88.109 30.1713 88.245 29.9787 88.3357 29.888C88.3357 29.7973 88.3697 29.718 88.4377 29.65C88.5057 29.5593 88.585 29.514 88.6757 29.514L88.9477 28.97C88.993 28.8793 89.129 28.698 89.3557 28.426C89.605 28.154 89.8997 27.8593 90.2397 27.542C90.5797 27.202 90.9197 26.8847 91.2597 26.59C91.6223 26.2953 91.917 26.08 92.1437 25.944C92.6197 25.6267 93.107 25.4793 93.6057 25.502C94.127 25.5247 94.569 25.6833 94.9317 25.978C94.9997 26.046 95.147 26.182 95.3737 26.386C95.623 26.59 95.895 26.8167 96.1897 27.066C96.507 27.3153 96.779 27.542 97.0057 27.746L98.2637 28.868L97.6857 30.568C97.391 31.4747 97.3117 32.268 97.4477 32.948C97.5837 33.628 97.799 34.2173 98.0937 34.716C98.207 34.9653 98.3543 35.158 98.5357 35.294C98.7397 35.43 99.0003 35.5207 99.3177 35.566C99.499 35.5887 99.669 35.6567 99.8277 35.77C99.9863 35.8833 100.066 36.0647 100.066 36.314C100.066 36.858 99.9637 37.2547 99.7597 37.504C99.5783 37.7307 99.3743 37.8667 99.1477 37.912C98.3997 38.0027 97.6857 37.9233 97.0057 37.674C96.3257 37.4247 95.7137 36.7787 95.1697 35.736C95.079 35.6 94.9543 35.3507 94.7957 34.988C94.6597 34.6027 94.5803 34.3533 94.5577 34.24C94.467 34.3533 94.3423 34.5007 94.1837 34.682C94.0477 34.8407 93.9117 34.988 93.7757 35.124C92.1663 36.756 90.7837 37.8213 89.6277 38.32C88.4943 38.796 87.5423 38.7847 86.7717 38.286ZM88.6417 35.464C88.8003 35.4867 89.0497 35.4073 89.3897 35.226C89.7297 35.022 90.183 34.6933 90.7497 34.24C91.5203 33.5827 92.155 33.0387 92.6537 32.608C93.1523 32.1773 93.6397 31.622 94.1157 30.942L94.8637 29.718C94.637 29.1967 94.433 28.8567 94.2517 28.698C94.0703 28.5393 93.889 28.46 93.7077 28.46C93.413 28.46 93.0617 28.6527 92.6537 29.038C92.2457 29.4007 91.781 29.9447 91.2597 30.67C90.761 31.3727 90.1943 32.2567 89.5597 33.322C89.265 33.8207 89.0383 34.308 88.8797 34.784C88.721 35.2373 88.6417 35.464 88.6417 35.464Z" fill="#1E8FCE"/>
<path d="M82.4422 38.184C82.2836 38.1387 82.0342 37.9913 81.6942 37.742C81.3542 37.4927 81.0482 37.1187 80.7762 36.62C80.5269 36.1213 80.4136 35.4753 80.4362 34.682C80.4589 34.002 80.5042 33.526 80.5722 33.254C80.6629 32.9593 80.6289 32.8007 80.4702 32.778C80.3569 32.7553 80.1302 32.8573 79.7902 33.084C79.4502 33.3107 79.0082 33.6733 78.4642 34.172C77.9202 34.6707 77.2629 35.328 76.4922 36.144C76.2202 36.3707 75.9142 36.654 75.5742 36.994C75.2569 37.3113 74.9282 37.5493 74.5882 37.708C74.2709 37.8667 73.9876 37.8327 73.7382 37.606L73.3982 37.3C73.2396 37.164 73.1036 36.9827 72.9902 36.756C72.8769 36.5293 72.8429 36.3367 72.8882 36.178L73.8402 33.526C74.1122 32.9367 74.2936 32.506 74.3842 32.234C74.4976 31.962 74.5429 31.792 74.5202 31.724C74.5202 31.656 74.4636 31.6333 74.3502 31.656C74.2142 31.6787 74.0216 31.8033 73.7722 32.03C73.5229 32.234 73.3529 32.404 73.2622 32.54C73.1716 32.54 73.0469 32.6307 72.8882 32.812C72.7522 32.9933 72.6162 33.152 72.4802 33.288C72.3442 33.424 72.1062 33.6847 71.7662 34.07C71.4262 34.4327 71.0636 34.818 70.6782 35.226C70.3836 35.498 70.0436 35.8607 69.6582 36.314C69.2729 36.7673 68.9329 37.1753 68.6382 37.538C68.3436 37.9007 68.1622 38.082 68.0942 38.082C67.6862 38.0593 67.3122 37.9233 66.9722 37.674C66.6549 37.4247 66.4396 37.1187 66.3262 36.756C66.1902 36.5067 66.1789 36.0533 66.2922 35.396C66.4056 34.716 66.6209 33.6393 66.9382 32.166C67.0289 31.826 67.1082 31.5313 67.1762 31.282C67.2669 31.0327 67.3576 30.7833 67.4482 30.534C67.5389 30.2847 67.6409 30.0013 67.7542 29.684C67.8902 29.3667 68.0602 28.9813 68.2642 28.528C68.3776 28.2107 68.4229 27.916 68.4002 27.644C68.3776 27.3493 68.3549 27.1113 68.3322 26.93C68.3322 26.59 68.4342 26.318 68.6382 26.114C68.8649 25.91 69.1142 25.774 69.3862 25.706C69.6582 25.6153 69.8736 25.5927 70.0322 25.638C70.6669 25.706 71.0976 25.9327 71.3242 26.318C71.5509 26.7033 71.6756 27.0773 71.6982 27.44C71.7209 27.78 71.6756 28.086 71.5622 28.358C71.4489 28.63 71.3582 28.8567 71.2902 29.038L70.9162 29.956C70.6896 30.4773 70.5196 30.8627 70.4062 31.112C70.3156 31.3387 70.2589 31.4973 70.2362 31.588C70.2362 31.656 70.2362 31.724 70.2362 31.792C70.2589 31.86 70.3609 31.826 70.5422 31.69C70.7236 31.554 70.9389 31.3727 71.1882 31.146C71.4602 30.8967 71.7096 30.6813 71.9362 30.5C72.3442 30.16 72.7749 29.82 73.2282 29.48C73.7042 29.1173 74.1689 28.8 74.6222 28.528C75.0756 28.256 75.4496 28.0747 75.7442 27.984C76.1296 28.052 76.4809 28.2447 76.7982 28.562C77.1382 28.8793 77.3536 29.1513 77.4442 29.378C77.5576 29.718 77.5689 30.024 77.4782 30.296C77.4102 30.568 77.3536 30.8173 77.3082 31.044C77.2856 31.1347 77.2402 31.3047 77.1722 31.554C77.1042 31.8033 77.0362 32.0413 76.9682 32.268C76.9002 32.472 76.8662 32.574 76.8662 32.574C76.8662 32.574 76.9342 32.506 77.0702 32.37C77.2062 32.234 77.3876 32.0753 77.6142 31.894C77.8409 31.69 78.0676 31.5087 78.2942 31.35C79.4276 30.4887 80.3229 29.9447 80.9802 29.718C81.6602 29.4687 82.2382 29.6613 82.7142 30.296C82.9862 30.5453 83.1562 30.8853 83.2242 31.316C83.3149 31.7467 83.3602 32.3247 83.3602 33.05C83.3829 33.3447 83.4056 33.6733 83.4282 34.036C83.4736 34.3987 83.5189 34.716 83.5642 34.988C83.6322 35.26 83.6889 35.43 83.7342 35.498C83.8022 35.5887 83.9269 35.6793 84.1082 35.77C84.2896 35.838 84.4596 35.8947 84.6182 35.94C84.9356 36.0987 85.1056 36.3933 85.1282 36.824C85.1736 37.232 85.0149 37.5493 84.6522 37.776C84.3122 37.98 83.9496 38.1047 83.5642 38.15C83.2016 38.1953 82.8276 38.2067 82.4422 38.184Z" fill="#1E8FCE"/>
</svg>
